<svg width="708" height="346" viewBox="0 0 708 346" fill="none" xmlns="http://www.w3.org/2000/svg">
<g clip-path="url(#clip0_9373_48196)">
<mask id="mask0_9373_48196" style="mask-type:luminance" maskUnits="userSpaceOnUse" x="0" y="0" width="708" height="346">
<path d="M708 0H0V346H708V0Z" fill="white"/>
</mask>
<g mask="url(#mask0_9373_48196)">
<path d="M108 -2V456" stroke="#4B8BFF" stroke-miterlimit="10"/>
<path d="M348 232H708" stroke="#4B8BFF" stroke-miterlimit="10"/>
<path d="M348 312H708" stroke="#4B8BFF" stroke-miterlimit="10"/>
<path d="M348 272H708" stroke="#4B8BFF" stroke-miterlimit="10"/>
<path d="M348 192H708" stroke="#4B8BFF" stroke-miterlimit="10"/>
<path d="M348 192.059V397.999" stroke="#4B8BFF" stroke-miterlimit="10"/>
<path d="M468 192.059V397.999" stroke="#4B8BFF" stroke-miterlimit="10"/>
<path d="M588 192.059V397.999" stroke="#4B8BFF" stroke-miterlimit="10"/>
<path d="M588 -2V192" stroke="#4B8BFF" stroke-miterlimit="10"/>
<path d="M293 243.5C293 186.891 246.885 141 190 141C133.115 141 87 186.891 87 243.5C87 300.109 133.115 346 190 346C246.885 346 293 300.109 293 243.5Z" fill="#3574F0" stroke="#6B9FFF" stroke-width="0.8" stroke-miterlimit="10"/>
<path d="M415 323.914H262C248.745 323.914 238 334.659 238 347.914V387.914C238 401.169 248.745 411.914 262 411.914H415C428.255 411.914 439 401.169 439 387.914V347.914C439 334.659 428.255 323.914 415 323.914Z" fill="#3574F0" stroke="#6B9FFF" stroke-width="0.8" stroke-miterlimit="10"/>
<path d="M273.972 29.116L204.264 55.5483C197.749 58.0189 194.47 65.3035 196.94 71.8189L223.372 141.526C225.843 148.042 233.128 151.321 239.643 148.85L309.351 122.418C315.866 119.947 319.145 112.663 316.674 106.147L290.242 36.4399C287.772 29.9244 280.487 26.6454 273.972 29.116Z" fill="#3574F0" stroke="#6B9FFF" stroke-width="0.8" stroke-miterlimit="10"/>
<path d="M674.821 39.3932C679.624 39.3932 683.518 35.4996 683.518 30.6966C683.518 25.8936 679.624 22 674.821 22C670.018 22 666.125 25.8936 666.125 30.6966C666.125 35.4996 670.018 39.3932 674.821 39.3932Z" fill="#3574F0" stroke="#6B9FFF" stroke-width="0.8" stroke-miterlimit="10"/>
<path d="M646.259 39.3932C651.062 39.3932 654.956 35.4996 654.956 30.6966C654.956 25.8936 651.062 22 646.259 22C641.456 22 637.562 25.8936 637.562 30.6966C637.562 35.4996 641.456 39.3932 646.259 39.3932Z" fill="#3574F0" stroke="#6B9FFF" stroke-width="0.8" stroke-miterlimit="10"/>
<path d="M617.697 39.3932C622.5 39.3932 626.393 35.4996 626.393 30.6966C626.393 25.8936 622.5 22 617.697 22C612.894 22 609 25.8936 609 30.6966C609 35.4996 612.894 39.3932 617.697 39.3932Z" fill="#3574F0" stroke="#6B9FFF" stroke-width="0.8" stroke-miterlimit="10"/>
<path d="M556.639 224.328C556.658 220.972 559.959 218.121 563.622 219.258L642.426 244.011C645.205 244.877 646.287 247.655 645.62 249.983L642.715 268.962C642.318 271.434 640.64 273.509 638.313 274.411L626.225 279.101L611.197 284.929C610.186 285.326 609.393 286.084 608.942 287.058L598.73 309.501C596.15 314.192 589.403 314.156 586.859 309.447L557.253 246.248C556.351 244.336 555.936 242.225 556.008 240.114L556.639 224.328Z" fill="#3574F0" stroke="#8FB7FF" stroke-width="1.8" stroke-miterlimit="10" stroke-linejoin="round"/>
<path d="M609.717 265.661L599.758 283.703C597.178 288.394 590.43 288.358 587.887 283.649L557.288 226.927C554.997 222.687 559.02 217.816 563.621 219.259L642.426 244.012C646.864 245.401 646.954 251.661 642.552 253.195L611.972 263.767C611.016 264.092 610.204 264.777 609.699 265.68L609.717 265.661Z" fill="#3574F0" stroke="#8FB7FF" stroke-width="1.8" stroke-miterlimit="10" stroke-linejoin="round"/>
<path d="M609.5 286.176L611.088 264.184" stroke="#8FB7FF" stroke-miterlimit="10" stroke-linejoin="round"/>
<path d="M598.75 309.482L601.871 279.75" stroke="#8FB7FF" stroke-miterlimit="10" stroke-linejoin="round"/>
<path d="M586.876 309.427L586.172 280.688" stroke="#8FB7FF" stroke-miterlimit="10" stroke-linejoin="round"/>
<path d="M601.098 143.137L574.703 184.935C571.919 189.389 567.037 192.101 561.77 192.101H507.382C502.114 192.115 497.232 189.389 494.448 184.935L468.325 143.137C465.227 138.184 465.227 131.917 468.311 126.978L494.705 85.1804C497.503 80.7123 502.371 78 507.624 78H562.027C567.294 78 572.176 80.7123 574.96 85.1518L601.083 126.978C604.181 131.917 604.181 138.198 601.098 143.137Z" fill="#3574F0" stroke="#8FB7FF" stroke-width="1.8" stroke-miterlimit="10"/>
<path d="M564.836 93.5166C565.764 92.0463 567.306 91.875 567.92 91.875C568.548 91.875 570.075 92.032 571.003 93.5166L572.759 96.3431V96.286L593.515 129.504C595.628 132.887 595.628 137.256 593.515 140.624L583.765 156.141L570.732 176.783C569.804 178.254 568.377 178.425 567.806 178.411C567.22 178.411 565.779 178.254 564.851 176.769L542.339 140.724C540.226 137.355 540.212 133.002 542.282 129.604L564.836 93.5166Z" fill="#3574F0" stroke="#8FB7FF" stroke-miterlimit="10"/>
<path d="M237.014 250.557C236.868 246.741 237.887 242.896 239.985 239.532L366.18 37.5623C369.791 31.7805 376.112 28.2852 382.928 28.2852H453.387C460.203 28.2852 466.538 31.795 470.15 37.5623L472.801 41.8149L473.747 43.3295L487.117 64.7091L503.996 91.7103C505.991 94.9143 506.996 98.5406 506.996 102.182C506.996 105.808 505.991 109.449 503.996 112.653L397.914 282.408L380.496 310.283L380.437 310.385L377.816 314.608C374.204 320.376 367.869 323.885 361.053 323.885H290.579C283.763 323.885 277.428 320.361 273.816 314.608L255.626 285.495L239.985 260.446C238.091 257.417 237.086 254.009 237.014 250.557Z" fill="#3574F0" stroke="#8FB7FF" stroke-width="1.8" stroke-linejoin="round"/>
<path d="M370.93 303.787C370.158 303.787 368.221 303.568 366.983 301.602L351.779 277.266L340.186 259.134L338.031 255.697C336.691 253.556 335.948 251.095 335.89 248.619C335.802 245.779 336.545 243.041 338.031 240.653L394.727 149.921L457.861 48.8047C459.099 46.824 461.051 46.6055 461.822 46.6055C462.594 46.6055 464.546 46.824 465.784 48.8047L466.701 50.2756L494.78 94.6805C497.635 99.2535 497.635 105.166 494.78 109.739L374.921 301.5L374.862 301.602C373.624 303.568 371.702 303.787 370.916 303.787H370.93Z" fill="#3574F0" stroke="#8FB7FF" stroke-miterlimit="10" stroke-linejoin="round"/>
</g>
</g>
<defs>
<clipPath id="clip0_9373_48196">
<rect width="708" height="346" fill="white"/>
</clipPath>
</defs>
</svg>
