<svg width="1069" height="1069" viewBox="0 0 1069 1069" fill="none" xmlns="http://www.w3.org/2000/svg">
<g clip-path="url(#clip0_9090_48288)">
<mask id="mask0_9090_48288" style="mask-type:luminance" maskUnits="userSpaceOnUse" x="0" y="0" width="1069" height="1069">
<path d="M801.75 0H267.25C119.652 0 0 119.652 0 267.25V801.75C0 949.348 119.652 1069 267.25 1069H801.75C949.348 1069 1069 949.348 1069 801.75V267.25C1069 119.652 949.348 0 801.75 0Z" fill="white"/>
</mask>
<g mask="url(#mask0_9090_48288)">
<path d="M801.75 0H267.25C119.652 0 0 119.652 0 267.25V801.75C0 949.348 119.652 1069 267.25 1069H801.75C949.348 1069 1069 949.348 1069 801.75V267.25C1069 119.652 949.348 0 801.75 0Z" fill="black"/>
<path d="M0 0H1069V1069H0V0Z" fill="url(#paint0_linear_9090_48288)"/>
<path d="M201 284.25C201 238.272 238.272 201 284.25 201H450.75C496.728 201 534 238.272 534 284.25V447.74C534.004 448.739 534.007 449.742 534.007 450.75C534.007 496.662 571.172 533.893 617.057 534H617.25H783.75C829.728 534 867 571.272 867 617.25V783.75C867 829.728 829.728 867 783.75 867H617.25C571.272 867 534 829.728 534 783.75V617.25C534 617.019 534 616.788 534.002 616.557C533.631 570.899 496.502 534 450.757 534C450.541 534 450.326 534 450.111 534H284.25C238.272 534 201 496.728 201 450.75V284.25Z" fill="black"/>
<path d="M201 284.25C201 238.272 238.272 201 284.25 201H450.75C496.728 201 534 238.272 534 284.25V447.74C534.004 448.739 534.007 449.742 534.007 450.75C534.007 496.662 571.172 533.893 617.057 534H617.25H783.75C829.728 534 867 571.272 867 617.25V783.75C867 829.728 829.728 867 783.75 867H617.25C571.272 867 534 829.728 534 783.75V617.25C534 617.019 534 616.788 534.002 616.557C533.631 570.899 496.502 534 450.757 534C450.541 534 450.326 534 450.111 534H284.25C238.272 534 201 496.728 201 450.75V284.25Z" fill="url(#paint1_linear_9090_48288)"/>
</g>
<path d="M802.935 20H266.065C130.167 20 20 130.167 20 266.065V802.935C20 938.833 130.167 1049 266.065 1049H802.935C938.833 1049 1049 938.833 1049 802.935V266.065C1049 130.167 938.833 20 802.935 20Z" stroke="black" stroke-width="40"/>
<path d="M802.935 20H266.065C130.167 20 20 130.274 20 266.304V803.696C20 939.726 130.167 1050 266.065 1050H802.935C938.833 1050 1049 939.726 1049 803.696V266.304C1049 130.274 938.833 20 802.935 20Z" stroke="url(#paint2_linear_9090_48288)" stroke-width="40"/>
</g>
<defs>
<linearGradient id="paint0_linear_9090_48288" x1="534.5" y1="2.19028e-05" x2="579.042" y2="1069" gradientUnits="userSpaceOnUse">
<stop stop-color="white" stop-opacity="0"/>
<stop offset="1" stop-color="white" stop-opacity="0.12"/>
</linearGradient>
<linearGradient id="paint1_linear_9090_48288" x1="534" y1="201" x2="534" y2="867" gradientUnits="userSpaceOnUse">
<stop stop-color="white"/>
<stop offset="1" stop-color="white" stop-opacity="0.5"/>
</linearGradient>
<linearGradient id="paint2_linear_9090_48288" x1="534.5" y1="-2.39131" x2="534.5" y2="1072.39" gradientUnits="userSpaceOnUse">
<stop stop-color="white" stop-opacity="0.12"/>
<stop offset="1" stop-color="white" stop-opacity="0"/>
</linearGradient>
<clipPath id="clip0_9090_48288">
<rect width="1069" height="1069" fill="white"/>
</clipPath>
</defs>
</svg>
