<svg width="771" height="180" viewBox="0 0 771 180" fill="none" xmlns="http://www.w3.org/2000/svg">
<path d="M0 0H45V45H0V0Z" fill="#276EF0"/>
<path opacity="0.6" d="M90 0H135V45H90V0Z" fill="#276EF0"/>
<path opacity="0.6" d="M45 45H90V90H45V45Z" fill="#276EF0"/>
<path opacity="0.45" d="M90 45H135V90H90V45Z" fill="#276EF0"/>
<path opacity="0.3" d="M135 45H180V90H135V45Z" fill="#276EF0"/>
<path opacity="0.6" d="M0 90H45V135H0V90Z" fill="#276EF0"/>
<path opacity="0.45" d="M45 90H90V135H45V90Z" fill="#276EF0"/>
<path opacity="0.3" d="M90 90H135V135H90V90Z" fill="#276EF0"/>
<path opacity="0.15" d="M135 90H180V135H135V90Z" fill="#276EF0"/>
<path opacity="0.3" d="M45 135H90V180H45V135Z" fill="#276EF0"/>
<path opacity="0.15" d="M90 135H135V180H90V135Z" fill="#276EF0"/>
<path d="M308.734 69.681L283.169 71.2483C282.732 69.0715 281.792 67.1124 280.35 65.3709C278.908 63.5859 277.007 62.171 274.647 61.1261C272.331 60.0377 269.555 59.4935 266.321 59.4935C261.995 59.4935 258.346 60.4077 255.374 62.2363C252.402 64.0213 250.917 66.4158 250.917 69.4198C250.917 71.8143 251.878 73.8387 253.801 75.4931C255.724 77.1475 259.023 78.4754 263.699 79.4767L281.923 83.1337C291.712 85.1364 299.011 88.3581 303.818 92.7988C308.625 97.2396 311.029 103.073 311.029 110.3C311.029 116.874 309.084 122.643 305.194 127.606C301.349 132.569 296.061 136.444 289.331 139.23C282.644 141.973 274.931 143.345 266.19 143.345C252.861 143.345 242.242 140.58 234.332 135.051C226.465 129.478 221.855 121.903 220.5 112.325L247.967 110.888C248.797 114.937 250.807 118.028 253.998 120.161C257.188 122.251 261.274 123.296 266.256 123.296C271.151 123.296 275.084 122.36 278.055 120.488C281.071 118.572 282.6 116.113 282.644 113.109C282.6 110.583 281.53 108.515 279.432 106.905C277.334 105.25 274.1 103.988 269.73 103.117L252.293 99.6558C242.46 97.6967 235.14 94.3008 230.333 89.4683C225.569 84.6358 223.188 78.4754 223.188 70.9871C223.188 64.5437 224.936 58.9928 228.432 54.3344C231.972 49.676 236.932 46.0843 243.312 43.5591C249.737 41.034 257.253 39.7715 265.863 39.7715C278.58 39.7715 288.588 42.449 295.886 47.8039C303.228 53.1589 307.511 60.4513 308.734 69.681Z" fill="#0F0D0E"/>
<path d="M353.633 143.279C347.209 143.279 341.484 142.169 336.459 139.949C331.433 137.685 327.456 134.354 324.528 129.957C321.644 125.516 320.201 119.987 320.201 113.37C320.201 107.797 321.228 103.117 323.282 99.3293C325.336 95.5416 328.133 92.4941 331.673 90.1866C335.213 87.8792 339.234 86.1378 343.735 84.9623C348.28 83.7868 353.043 82.9596 358.025 82.4807C363.882 81.8712 368.601 81.3052 372.185 80.7828C375.768 80.2168 378.369 79.3896 379.986 78.3012C381.603 77.2128 382.411 75.602 382.411 73.4687V73.0768C382.411 68.9409 381.1 65.741 378.478 63.4771C375.9 61.2132 372.229 60.0812 367.465 60.0812C362.439 60.0812 358.441 61.1914 355.469 63.4118C352.497 65.5886 350.531 68.3314 349.569 71.6401L323.741 69.5504C325.052 63.4553 327.631 58.1874 331.477 53.7467C335.322 49.2624 340.282 45.823 346.357 43.4285C352.475 40.9905 359.555 39.7715 367.596 39.7715C373.19 39.7715 378.544 40.4245 383.657 41.7306C388.813 43.0367 393.38 45.0612 397.357 47.8039C401.378 50.5467 404.546 54.0732 406.862 58.3833C409.179 62.6499 410.337 67.7654 410.337 73.7299V141.385H383.853V127.476H383.067C381.45 130.61 379.286 133.375 376.577 135.769C373.867 138.12 370.612 139.971 366.81 141.32C363.008 142.626 358.615 143.279 353.633 143.279ZM361.631 124.08C365.739 124.08 369.366 123.274 372.513 121.663C375.659 120.009 378.128 117.789 379.92 115.002C381.712 112.216 382.608 109.06 382.608 105.533V94.8886C381.734 95.4546 380.532 95.977 379.002 96.4559C377.517 96.8913 375.834 97.3049 373.955 97.6967C372.076 98.045 370.196 98.3715 368.317 98.6763C366.438 98.9375 364.734 99.1769 363.204 99.3946C359.927 99.8735 357.064 100.635 354.617 101.68C352.169 102.725 350.268 104.14 348.914 105.925C347.559 107.667 346.881 109.843 346.881 112.456C346.881 116.243 348.258 119.138 351.011 121.141C353.808 123.1 357.348 124.08 361.631 124.08Z" fill="#0F0D0E"/>
<path d="M428.31 179.001V41.0776H455.842V57.9262H457.088C458.311 55.2269 460.081 52.4841 462.398 49.6978C464.757 46.8679 467.817 44.517 471.575 42.6449C475.377 40.7293 480.097 39.7715 485.734 39.7715C493.076 39.7715 499.85 41.6871 506.056 45.5183C512.261 49.306 517.222 55.031 520.936 62.6934C524.651 70.3123 526.508 79.8685 526.508 91.3621C526.508 102.551 524.695 111.998 521.067 119.704C517.484 127.367 512.589 133.179 506.384 137.141C500.222 141.059 493.317 143.018 485.669 143.018C480.25 143.018 475.639 142.126 471.837 140.341C468.079 138.556 464.998 136.313 462.594 133.614C460.191 130.871 458.355 128.107 457.088 125.321H456.236V179.001H428.31ZM455.646 91.2315C455.646 97.196 456.476 102.399 458.137 106.839C459.797 111.28 462.201 114.741 465.347 117.223C468.494 119.661 472.318 120.88 476.819 120.88C481.364 120.88 485.21 119.639 488.356 117.157C491.503 114.632 493.885 111.149 495.502 106.709C497.162 102.224 497.993 97.0654 497.993 91.2315C497.993 85.4412 497.184 80.3474 495.567 75.9502C493.95 71.5531 491.569 68.1137 488.422 65.6321C485.276 63.1505 481.408 61.9097 476.819 61.9097C472.274 61.9097 468.428 63.107 465.282 65.5015C462.179 67.896 459.797 71.2918 458.137 75.689C456.476 80.0862 455.646 85.267 455.646 91.2315Z" fill="#0F0D0E"/>
<path d="M541.433 141.385V41.0776H569.359V141.385H541.433Z" fill="#0F0D0E"/>
<path d="M633.531 143.345C623.217 143.345 614.346 141.168 606.916 136.814C599.531 132.417 593.849 126.322 589.872 118.529C585.939 110.736 583.973 101.767 583.973 91.6234C583.973 81.3488 585.961 72.3367 589.938 64.5872C593.959 56.7942 599.662 50.7209 607.047 46.3672C614.433 41.9701 623.217 39.7715 633.4 39.7715C642.184 39.7715 649.875 41.3606 656.474 44.5387C663.073 47.7169 668.296 52.1794 672.141 57.9262C675.987 63.673 678.107 70.4211 678.5 78.1706H652.148C651.405 73.1639 649.438 69.1368 646.248 66.0892C643.101 62.9982 638.972 61.4526 633.858 61.4526C629.532 61.4526 625.752 62.6281 622.518 64.9791C619.328 67.2865 616.837 70.6606 615.045 75.1013C613.253 79.542 612.357 84.9187 612.357 91.2315C612.357 97.6314 613.231 103.073 614.979 107.558C616.771 112.042 619.284 115.46 622.518 117.811C625.752 120.161 629.532 121.337 633.858 121.337C637.049 121.337 639.911 120.684 642.446 119.378C645.024 118.072 647.144 116.178 648.805 113.696C650.509 111.171 651.623 108.145 652.148 104.619H678.5C678.063 112.281 675.965 119.03 672.207 124.863C668.492 130.654 663.357 135.182 656.802 138.447C650.247 141.712 642.49 143.345 633.531 143.345Z" fill="#0F0D0E"/>
<path d="M770.5 144V163H690.5V144H770.5Z" fill="#276EF0"/>
<path d="M541 0H569V28H541V0Z" fill="#276EF0"/>
</svg>
