<svg width="180" height="180" viewBox="0 0 180 180" fill="none" xmlns="http://www.w3.org/2000/svg">
<path d="M0 0H45V45H0V0Z" fill="#276EF0"/>
<path opacity="0.6" d="M90 0H135V45H90V0Z" fill="#276EF0"/>
<path opacity="0.6" d="M45 45H90V90H45V45Z" fill="#276EF0"/>
<path opacity="0.45" d="M90 45H135V90H90V45Z" fill="#276EF0"/>
<path opacity="0.3" d="M135 45H180V90H135V45Z" fill="#276EF0"/>
<path opacity="0.6" d="M0 90H45V135H0V90Z" fill="#276EF0"/>
<path opacity="0.45" d="M45 90H90V135H45V90Z" fill="#276EF0"/>
<path opacity="0.3" d="M90 90H135V135H90V90Z" fill="#276EF0"/>
<path opacity="0.15" d="M135 90H180V135H135V90Z" fill="#276EF0"/>
<path opacity="0.3" d="M45 135H90V180H45V135Z" fill="#276EF0"/>
<path opacity="0.15" d="M90 135H135V180H90V135Z" fill="#276EF0"/>
</svg>
